<?xml version="1.0" standalone="no"?>
<!DOCTYPE svg PUBLIC "-//W3C//DTD SVG 20010904//EN"
 "http://www.w3.org/TR/2001/REC-SVG-20010904/DTD/svg10.dtd">
<svg version="1.0" xmlns="http://www.w3.org/2000/svg"
 width="375.000000pt" height="134.000000pt" viewBox="0 0 375.000000 134.000000"
 preserveAspectRatio="xMidYMid meet">

<g transform="translate(0.000000,134.000000) scale(0.100000,-0.100000)"
fill="#000000" stroke="none">
<path d="M1971 1209 c-35 -4 -88 -20 -117 -34 -96 -47 -123 -110 -131 -305 -8
-192 8 -330 44 -389 62 -102 175 -126 563 -119 232 4 248 6 305 29 45 18 66
34 90 67 27 40 30 52 33 138 l4 94 -121 0 -121 0 0 -24 c0 -14 -11 -37 -24
-53 -21 -24 -32 -28 -95 -31 l-71 -4 0 41 0 41 -175 0 -175 0 0 124 c0 68 2
130 5 138 4 9 23 12 70 10 l65 -4 0 36 0 36 116 0 116 0 -3 -44 -4 -43 125 -7
c69 -3 160 -6 203 -6 l77 0 0 63 c0 87 -16 136 -59 178 -42 42 -85 56 -210 70
-104 11 -421 10 -510 -2z"/>
<path d="M1380 790 l0 -420 120 0 120 0 0 420 0 420 -120 0 -120 0 0 -420z"/>
<path d="M187 224 c-11 -12 -8 -136 3 -129 6 3 10 27 11 53 l1 47 16 -47 c8
-27 21 -48 27 -48 7 0 19 21 26 48 l14 47 5 -48 c3 -26 10 -47 15 -47 6 0 10
7 9 15 0 8 -1 38 -2 66 -2 42 -5 50 -19 47 -10 -2 -22 -19 -28 -40 -15 -53
-21 -54 -36 -7 -14 42 -28 56 -42 43z"/>
<path d="M345 220 c-3 -5 1 -10 9 -10 9 0 16 5 16 10 0 6 -4 10 -9 10 -6 0
-13 -4 -16 -10z"/>
<path d="M483 165 c2 -69 20 -90 25 -30 3 28 7 35 20 33 12 -2 18 -15 20 -41
4 -48 22 -48 22 1 0 48 -12 66 -39 59 -17 -4 -21 -1 -21 19 0 14 -6 24 -14 24
-11 0 -14 -15 -13 -65z"/>
<path d="M600 220 c0 -5 5 -10 10 -10 6 0 10 5 10 10 0 6 -4 10 -10 10 -5 0
-10 -4 -10 -10z"/>
<path d="M1020 160 c0 -40 4 -70 10 -70 6 0 10 30 10 70 0 40 -4 70 -10 70 -6
0 -10 -30 -10 -70z"/>
<path d="M1870 206 c0 -20 -4 -23 -21 -19 -15 4 -27 0 -35 -12 -29 -40 -10
-80 38 -80 30 0 33 3 38 35 6 45 0 100 -11 100 -5 0 -9 -11 -9 -24z m-2 -63
c-3 -31 -32 -43 -41 -18 -9 23 3 45 25 45 15 0 19 -6 16 -27z"/>
<path d="M1980 210 c-28 -28 -27 -84 2 -104 25 -18 64 -21 73 -6 3 6 -5 10
-19 10 -29 0 -56 24 -56 50 0 26 27 50 56 50 14 0 22 4 19 10 -10 17 -54 11
-75 -10z"/>
<path d="M2080 220 c0 -5 5 -10 10 -10 6 0 10 5 10 10 0 6 -4 10 -10 10 -5 0
-10 -4 -10 -10z"/>
<path d="M2400 220 c0 -5 7 -10 16 -10 8 0 12 5 9 10 -3 6 -10 10 -16 10 -5 0
-9 -4 -9 -10z"/>
<path d="M2650 160 l0 -70 35 0 c19 0 35 5 35 10 0 6 -11 10 -25 10 -24 0 -25
3 -25 60 0 33 -4 60 -10 60 -6 0 -10 -30 -10 -70z"/>
<path d="M2842 164 l3 -67 32 -3 c53 -6 80 39 49 81 -8 12 -20 16 -35 12 -17
-4 -21 -1 -21 19 0 15 -6 24 -15 24 -13 0 -15 -12 -13 -66z m68 -25 c0 -24 -4
-30 -17 -27 -11 2 -19 14 -21 31 -3 22 1 27 17 27 17 0 21 -6 21 -31z"/>
<path d="M1183 195 c-8 -9 -9 -16 -3 -20 6 -3 10 -22 10 -41 0 -34 22 -56 38
-39 4 4 1 10 -5 12 -17 6 -17 60 -1 65 9 3 8 9 -4 21 -20 20 -20 20 -35 2z"/>
<path d="M1638 198 c-9 -26 4 -97 19 -102 22 -9 39 5 19 16 -21 12 -22 58 -1
58 8 0 15 5 15 10 0 6 -7 10 -15 10 -8 0 -15 5 -15 10 0 14 -17 12 -22 -2z"/>
<path d="M2450 193 c-10 -12 -11 -18 -2 -21 7 -2 12 -19 12 -38 0 -34 22 -56
38 -39 4 4 1 10 -5 12 -17 6 -17 60 -1 65 9 3 8 9 -4 21 -20 20 -19 20 -38 0z"/>
<path d="M3235 193 c-3 -10 -2 -19 3 -21 6 -2 8 -11 5 -21 -6 -24 13 -61 32
-61 8 0 15 5 15 10 0 6 -4 10 -10 10 -15 0 -12 58 2 62 9 3 8 9 -4 21 -21 22
-34 21 -43 0z"/>
<path d="M342 143 c4 -62 22 -62 26 0 2 38 0 47 -13 47 -13 0 -15 -9 -13 -47z"/>
<path d="M406 174 c-31 -30 -9 -84 35 -84 10 0 19 5 19 10 0 6 -9 10 -19 10
-21 0 -33 22 -25 45 4 8 15 15 25 15 10 0 19 5 19 10 0 16 -37 12 -54 -6z"/>
<path d="M600 140 c0 -27 5 -50 10 -50 6 0 10 23 10 50 0 28 -4 50 -10 50 -5
0 -10 -22 -10 -50z"/>
<path d="M650 171 c-5 -11 -10 -26 -10 -35 0 -20 38 -46 58 -39 10 4 13 1 10
-8 -3 -8 -18 -16 -34 -20 -27 -5 -28 -6 -7 -13 42 -14 61 8 65 72 l3 59 -37 1
c-28 1 -40 -3 -48 -17z m58 -28 c-2 -17 -9 -28 -18 -28 -9 0 -16 11 -18 28 -3
22 1 27 18 27 17 0 21 -5 18 -27z"/>
<path d="M764 178 c-5 -8 0 -9 14 -6 32 9 38 -10 7 -22 -20 -7 -26 -16 -23
-33 2 -18 10 -22 41 -23 35 -1 37 1 37 28 0 16 -5 38 -10 49 -12 21 -55 26
-66 7z m46 -53 c0 -8 -7 -15 -15 -15 -8 0 -15 7 -15 15 0 8 7 15 15 15 8 0 15
-7 15 -15z"/>
<path d="M862 141 c4 -55 22 -61 26 -8 5 60 42 44 42 -19 0 -13 5 -24 10 -24
15 0 12 76 -3 88 -7 6 -27 10 -45 10 -33 -1 -33 -1 -30 -47z"/>
<path d="M1070 138 c0 -26 5 -48 10 -48 6 0 10 11 10 24 0 13 3 31 6 40 7 19
34 21 35 4 1 -7 2 -22 2 -33 3 -34 22 -32 25 3 4 44 -12 62 -54 60 -34 -1 -34
-2 -34 -50z"/>
<path d="M1262 178 c-6 -6 -12 -25 -12 -40 0 -33 37 -56 67 -43 15 7 13 9 -11
14 -42 8 -46 31 -6 31 27 0 31 3 28 23 -3 25 -45 36 -66 15z m46 -16 c2 -7 -6
-12 -17 -12 -21 0 -27 11 -14 24 9 9 26 2 31 -12z"/>
<path d="M1362 178 c-28 -28 -9 -78 29 -78 22 0 27 -4 22 -16 -4 -10 -14 -14
-30 -11 -15 3 -22 0 -20 -7 6 -18 43 -18 61 -1 11 11 16 34 16 69 l0 53 -33 1
c-19 1 -39 -4 -45 -10z m53 -18 c9 -15 -4 -50 -20 -50 -16 0 -29 35 -20 50 3
5 12 10 20 10 8 0 17 -5 20 -10z"/>
<path d="M1470 139 c0 -27 5 -49 10 -49 6 0 10 16 10 35 0 22 6 38 15 41 23 9
18 22 -10 22 -23 0 -25 -4 -25 -49z"/>
<path d="M1540 179 c0 -6 6 -9 13 -6 8 3 20 1 28 -3 14 -9 14 -9 -36 -25 -15
-4 -21 -44 -7 -46 66 -10 72 -7 72 26 0 51 -9 65 -41 65 -16 0 -29 -5 -29 -11z
m50 -49 c0 -12 -28 -25 -36 -17 -9 9 6 27 22 27 8 0 14 -5 14 -10z"/>
<path d="M1712 178 c-6 -6 -12 -25 -12 -40 0 -33 37 -56 67 -43 15 7 13 9 -11
14 -42 8 -46 31 -6 31 27 0 31 3 28 23 -3 25 -45 36 -66 15z m48 -19 c0 -5 -9
-9 -20 -9 -22 0 -27 16 -7 23 15 5 27 -1 27 -14z"/>
<path d="M2080 140 c0 -27 5 -50 10 -50 6 0 10 23 10 50 0 28 -4 50 -10 50 -5
0 -10 -22 -10 -50z"/>
<path d="M2130 139 c0 -27 5 -49 10 -49 6 0 10 13 10 29 0 16 7 36 15 45 20
20 19 24 -10 24 -23 0 -25 -4 -25 -49z"/>
<path d="M2206 174 c-9 -8 -16 -21 -16 -27 0 -22 31 -57 50 -57 28 0 34 18 8
22 -17 2 -24 11 -26 31 -3 23 0 27 22 27 14 0 26 5 26 10 0 16 -47 12 -64 -6z"/>
<path d="M2290 145 c0 -46 1 -47 53 -49 26 -2 27 0 27 46 0 57 -17 65 -22 11
-2 -26 -8 -38 -18 -38 -10 0 -16 12 -18 38 -4 52 -22 46 -22 -8z"/>
<path d="M2400 140 c0 -27 5 -50 10 -50 6 0 10 23 10 50 0 28 -4 50 -10 50 -5
0 -10 -22 -10 -50z"/>
<path d="M2523 173 c-4 -10 2 -23 15 -34 27 -21 28 -29 2 -29 -11 0 -20 -4
-20 -10 0 -11 20 -13 44 -4 23 9 20 41 -4 54 -11 6 -18 15 -15 21 4 5 10 7 15
4 5 -3 11 -1 15 5 4 6 -5 10 -20 10 -15 0 -28 -7 -32 -17z"/>
<path d="M2744 179 c-4 -7 2 -9 16 -7 13 2 25 -2 27 -9 2 -6 -6 -13 -19 -15
-17 -2 -23 -10 -23 -28 0 -22 4 -25 35 -25 30 1 35 4 38 27 5 38 -14 68 -43
68 -13 0 -27 -5 -31 -11z m46 -54 c0 -8 -7 -15 -15 -15 -16 0 -20 12 -8 23 11
12 23 8 23 -8z"/>
<path d="M2973 178 c-20 -26 -22 -47 -4 -69 36 -45 105 11 74 60 -13 20 -57
26 -70 9z m51 -23 c8 -22 -4 -46 -23 -43 -9 2 -17 15 -19 31 -3 21 1 27 16 27
11 0 22 -7 26 -15z"/>
<path d="M3070 144 c0 -23 5 -46 10 -49 6 -3 10 5 10 19 0 35 10 56 27 56 8 0
12 4 9 9 -3 5 -17 9 -31 9 -23 0 -25 -4 -25 -44z"/>
<path d="M3140 180 c0 -7 7 -9 16 -6 31 12 35 -7 5 -25 -17 -10 -31 -23 -31
-28 0 -16 25 -29 53 -28 27 2 28 4 25 47 -3 43 -5 45 -35 48 -20 2 -33 -1 -33
-8z m50 -55 c0 -8 -7 -15 -15 -15 -8 0 -15 7 -15 15 0 8 7 15 15 15 8 0 15 -7
15 -15z"/>
<path d="M3316 174 c-22 -21 -20 -47 4 -69 42 -38 98 12 70 64 -13 25 -52 28
-74 5z m58 -19 c8 -22 -4 -46 -23 -43 -9 2 -17 15 -19 31 -3 21 1 27 16 27 11
0 22 -7 26 -15z"/>
<path d="M3420 139 c0 -27 5 -49 10 -49 6 0 10 13 10 29 0 16 7 36 15 45 20
20 19 24 -10 24 -23 0 -25 -4 -25 -49z"/>
<path d="M3490 181 c0 -5 7 -25 16 -46 14 -34 14 -39 -1 -55 -9 -10 -12 -21
-7 -24 14 -9 41 27 62 83 16 40 17 51 6 51 -7 0 -18 -15 -23 -32 l-10 -33 -13
33 c-11 29 -30 44 -30 23z"/>
</g>
</svg>
