<?xml version="1.0" encoding="UTF-8"?>
<svg version="1.1" xmlns="http://www.w3.org/2000/svg" width="1800" height="1800">
<path d="M0 0 C594 0 1188 0 1800 0 C1800 594 1800 1188 1800 1800 C1206 1800 612 1800 0 1800 C0 1206 0 612 0 0 Z " transform="translate(0,0)"/>
<path d="M0 0 C594 0 1188 0 1800 0 C1800 594 1800 1188 1800 1800 C1206 1800 612 1800 0 1800 C0 1206 0 612 0 0 Z M289.21284497 218.30807811 C287 219 287 219 283.1875 219.5 C279.72576416 220.04301739 277.93983994 221.16260004 275 223 C272.66816393 223.67188497 270.33498858 224.33915417 268 225 C267.34 225.66 266.68 226.32 266 227 C264.3364521 227.67441131 262.66933058 228.3400321 261 229 C258.25204097 230.5702623 255.63410665 232.2439289 253 234 C253 234.66 253 235.32 253 236 C252.34 236.185625 251.68 236.37125 251 236.5625 C239.70989026 241.97234425 229.97208733 255.09032348 224.1328125 265.91015625 C223.22571234 267.58359966 222.2725186 269.23202496 221.3046875 270.87109375 C217.48045796 277.53549376 215.014206 283.56131005 213.60546875 291.125 C213 294 213 294 211.97845173 296.0882988 C210.58645858 300.23062695 210.72094079 304.12009908 210.73930359 308.46221924 C210.73547804 309.41977607 210.73165249 310.37733291 210.72771102 311.36390662 C210.71738597 314.5750169 210.72137231 317.78594821 210.7253418 320.99707031 C210.72099498 323.29844834 210.71581194 325.59982492 210.70985413 327.90119934 C210.69644778 334.1554566 210.69588742 340.40965348 210.69841743 346.66392231 C210.6994863 351.88500447 210.69460577 357.10607438 210.689812 362.32715392 C210.67807559 375.35131422 210.67894507 388.3754401 210.68536881 401.39960262 C210.69053453 412.69996062 210.67929176 424.00023233 210.66027059 435.30057326 C210.64087672 446.91166184 210.63293028 458.52270593 210.63639385 470.13381076 C210.63820662 476.6493091 210.6355712 483.16472847 210.62167931 489.68021393 C210.60909959 495.80992051 210.61104663 501.93945461 210.62409019 508.06915855 C210.62645541 510.31651302 210.62372328 512.56387962 210.61546707 514.81122017 C210.60499325 517.88429502 210.61310585 520.95679186 210.6257782 524.02984619 C210.61840391 524.91459287 210.61102963 525.79933955 210.60343188 526.71089673 C210.64851622 531.92488299 211.45350002 536.2024218 213.29243785 541.08917594 C214.47580259 544.28494019 214.92235907 547.58464233 215.47265625 550.93359375 C215.86523255 553.20543211 215.86523255 553.20543211 218 555 C218.69999287 556.93331364 219.39972798 558.86672133 220.09765625 560.80078125 C221.61222567 564.49213442 223.81151628 567.6791373 226 571 C227.18802672 572.89550331 228.37550156 574.7913526 229.5625 576.6875 C235.34055432 585.90836728 242.48405308 592.27425236 251.19140625 598.65625 C252.7079734 599.78302991 254.17356814 600.97797345 255.625 602.1875 C258.30856695 604.2354853 260.93326659 605.58458458 264 607 C264.71671875 607.33128906 265.4334375 607.66257812 266.171875 608.00390625 C270.39513606 609.92421455 274.58726725 611.55910767 279 613 C279.64582031 613.32097656 280.29164063 613.64195312 280.95703125 613.97265625 C286.25800988 616.49220146 291.17855507 617.36416493 297.00508118 617.61024475 C298.17979618 617.66699547 298.17979618 617.66699547 299.37824279 617.72489268 C309.13790907 618.15474505 318.90143827 618.16074353 328.66870117 618.17358398 C330.77819958 618.17990699 332.88769669 618.18667465 334.99719238 618.19384766 C339.50022798 618.20838701 344.00325888 618.22016269 348.5063076 618.22979546 C355.62974265 618.24538121 362.75313509 618.26932338 369.87654114 618.29469299 C390.11859443 618.36556353 410.36067022 618.42583611 430.6027832 618.47680664 C441.81233948 618.50510568 453.02185143 618.54046806 464.23136121 618.58346039 C471.31112319 618.61019342 478.39083521 618.6281209 485.47063768 618.63949764 C489.86752969 618.64862317 494.26436055 618.66598227 498.66121674 618.68567657 C500.69816693 618.69314695 502.73513279 618.69723283 504.77209663 618.69767189 C507.5538893 618.69875575 510.33537167 618.7120148 513.11711121 618.72825623 C514.32293996 618.72433094 514.32293996 618.72433094 515.5531289 618.72032636 C520.413812 618.76460847 524.37453478 619.50428721 529 621 C530.5366652 621.19147721 532.07923106 621.34475386 533.625 621.4375 C537.49432007 621.80351676 539.72796414 622.84734483 543 625 C544.0725 625.28875 545.145 625.5775 546.25 625.875 C559.21692645 629.76507794 575.03660938 641.10272862 583 652 C583.66 652 584.32 652 585 652 C585.39058594 653.08667969 585.39058594 653.08667969 585.7890625 654.1953125 C587.03773401 657.08739684 588.51803041 659.33687126 590.375 661.875 C594.98485637 668.34027574 598.29483727 674.52859818 601 682 C601.33 682.33 601.66 682.66 602 683 C602.53983388 685.62288853 603.036893 688.23849975 603.5 690.875 C604.47704302 696.50156876 604.47704302 696.50156876 606 702 C606.26160461 705.99541583 606.23153146 709.99694501 606.25 714 C606.2809375 715.63001953 606.2809375 715.63001953 606.3125 717.29296875 C606.34787926 724.69607894 605.22332292 730.96360547 603 738 C602.6561948 739.39329099 602.32206319 740.78902329 602 742.1875 C601.25127682 745.04200711 600.42733368 747.63598197 599.375 750.375 C597.88178192 753.66549657 597.88178192 753.66549657 598 756 C597.01 756.33 596.02 756.66 595 757 C594.31602992 758.60732968 593.63954736 760.21823379 593 761.84375 C587.63170561 773.41913477 578.03098291 782.49186972 568 790 C566.80890625 790.91458984 566.80890625 790.91458984 565.59375 791.84765625 C559.15888045 796.6006849 552.36358378 799.91549638 545 803 C543.58847656 803.60714844 543.58847656 803.60714844 542.1484375 804.2265625 C529.22581053 809.40306149 514.84501943 808.15565709 501.15185547 808.17358398 C499.05796168 808.17989949 496.96406922 808.18666637 494.87017822 808.19384766 C490.38177647 808.20844502 485.89337964 808.22019856 481.40496445 808.22979546 C474.30218874 808.24532632 467.19945651 808.26927302 460.09671021 808.29469299 C439.90646108 808.36569519 419.71618797 808.4257177 399.52587891 808.47680664 C388.35918685 808.50513643 377.19253899 808.54052437 366.02589333 808.58346039 C358.97038529 808.61016756 351.91492714 808.62811197 344.85937858 808.63949764 C340.46670866 808.64864467 336.0740994 808.66601535 331.68146515 808.68567657 C329.6506178 808.69312773 327.61975486 808.69723166 325.58889389 808.69767189 C322.80783105 808.69876124 320.02707351 808.71206946 317.24606323 808.72825623 C316.45071415 808.72563937 315.65536506 808.72302252 314.83591449 808.72032636 C309.79839001 808.76584475 305.12803817 809.43659627 300.20805466 810.52055508 C297.28342043 811.15559417 294.34056864 811.54334214 291.375 811.9375 C286.16715431 812.71378686 281.85159009 813.99244548 277 816 C275.845 816.309375 274.69 816.61875 273.5 816.9375 C266.65562952 819.01525532 259.65024129 822.58199218 254 827 C254 827.66 254 828.32 254 829 C253.44183594 829.07863281 252.88367188 829.15726563 252.30859375 829.23828125 C245.26863607 831.56110993 239.51881609 839.31920263 235 845 C234.21367187 845.7528125 233.42734375 846.505625 232.6171875 847.28125 C226.58624705 853.54622695 222.15830055 861.87499914 218.88671875 869.90234375 C218 872 218 872 216.57926214 874.70449752 C209.87695182 888.69044688 210.42644913 903.6471749 210.47860718 918.78886414 C210.47255834 921.28734013 210.46477647 923.78581241 210.45542204 926.28427821 C210.4391882 931.69430548 210.43523972 937.1041211 210.44242859 942.51416397 C210.45309088 950.5596046 210.4408038 958.60489987 210.42426272 966.65032471 C210.39385119 981.85919111 210.39036556 997.06799068 210.39530878 1012.27688112 C210.39898035 1024.02546994 210.39544292 1035.77403697 210.38685989 1047.52262306 C210.38565507 1049.21316639 210.38445267 1050.90370971 210.38325269 1052.59425304 C210.38143809 1055.14204563 210.37962075 1057.68983823 210.37778799 1060.23763081 C210.36093903 1083.91302557 210.3522505 1107.58841215 210.36060143 1131.26381207 C210.36091418 1132.15553954 210.36122693 1133.04726701 210.36154916 1133.96601653 C210.36316062 1138.48518498 210.36485216 1143.0043534 210.36657576 1147.5235218 C210.36691794 1148.42097066 210.36726011 1149.31841952 210.36761266 1150.24306379 C210.36830597 1152.05792174 210.36900303 1153.87277969 210.36970383 1155.68763764 C210.38041549 1183.91965616 210.36456116 1212.15154971 210.32763672 1240.38354492 C210.28615606 1272.1360116 210.26475909 1303.88840087 210.27278769 1335.64089614 C210.27357832 1339.03003012 210.27430143 1342.41916411 210.27498245 1345.80829811 C210.27516392 1346.64272741 210.27534538 1347.47715672 210.27553234 1348.33687175 C210.27785917 1360.90460844 210.26460675 1373.47226666 210.24335861 1386.03998375 C210.21920133 1400.34257091 210.21619768 1414.64498586 210.24093895 1428.94757571 C210.25414715 1436.9395947 210.25104861 1444.93120126 210.22376192 1452.92318681 C210.20520797 1458.90916901 210.21842621 1464.89465664 210.24345751 1470.88063285 C210.24873396 1473.28831823 210.24407365 1475.69605235 210.22798578 1478.10368975 C210.11221033 1496.73610037 212.29288431 1514.68079102 222 1531 C222.55816406 1532.01578125 223.11632812 1533.0315625 223.69140625 1534.078125 C226.67001808 1539.40488655 229.43126455 1543.88813809 234 1548 C235.09357562 1549.26203045 236.17586373 1550.53388366 237.25 1551.8125 C241.11132728 1556.26787763 245.31330385 1560.41100254 250 1564 C250.66 1564 251.32 1564 252 1564 C252.495 1565.485 252.495 1565.485 253 1567 C254.96879323 1568.06011943 256.97918076 1569.04276983 259 1570 C260.65202684 1571.01077958 262.29741953 1572.03244946 263.9375 1573.0625 C267.96470078 1575.51884988 271.44585032 1576.88469804 276 1578 C276.99 1578.66 277.98 1579.32 279 1580 C280.77293141 1580.56283537 282.56899745 1581.05455165 284.375 1581.5 C285.31085938 1581.7371875 286.24671875 1581.974375 287.2109375 1582.21875 C299.50440708 1584.753486 311.22534859 1585.28401779 323.72351742 1585.24888897 C325.71784585 1585.25067394 327.71217366 1585.25333571 329.7064999 1585.25678983 C335.18333838 1585.26373906 340.66010424 1585.25825775 346.13693935 1585.25073375 C352.09670694 1585.2447544 358.05646545 1585.25039552 364.01623303 1585.25455457 C374.46044899 1585.26023872 384.90464602 1585.25855558 395.34885979 1585.2518692 C406.55230009 1585.24473311 417.75572887 1585.24196758 428.9591713 1585.24450874 C430.0216625 1585.24474554 430.0216625 1585.24474554 431.10561817 1585.24498712 C434.71759743 1585.24581116 438.32957668 1585.24670403 441.94155592 1585.2476195 C468.07085225 1585.25408697 494.20014005 1585.25074318 520.32943535 1585.24202538 C546.21160401 1585.23340557 572.09376864 1585.22849369 597.9759388 1585.22869301 C599.60159126 1585.22870093 601.22724373 1585.22870865 602.8528962 1585.22871618 C609.38577146 1585.22875355 615.91864673 1585.22881997 622.45152199 1585.22892199 C640.7135796 1585.22919961 658.97563715 1585.22881089 677.23769474 1585.22793293 C678.48510438 1585.22787342 678.48510438 1585.22787342 679.75771422 1585.22781271 C706.25562636 1585.2265048 732.75353722 1585.22233376 759.25144863 1585.21607494 C760.11086018 1585.215872 760.97027173 1585.21566907 761.85572606 1585.21545998 C775.81189949 1585.21215127 789.76807287 1585.20865595 803.72424624 1585.20515126 C859.07308243 1585.19126336 914.42191403 1585.18461812 969.77075195 1585.18530273 C971.52016034 1585.18532312 973.26956872 1585.18534334 975.0189771 1585.18536337 C978.51365283 1585.18540356 982.00832856 1585.18544433 985.5030043 1585.18548548 C993.33885062 1585.1855769 1001.17469694 1585.18566126 1009.01054326 1585.18573207 C1010.74607622 1585.18574784 1012.48160917 1585.18576428 1014.21714213 1585.1857814 C1060.58681131 1585.18622674 1106.95647986 1585.18175828 1153.32614857 1585.17542917 C1154.13574843 1585.17531899 1154.94534829 1585.17520882 1155.77948148 1585.17509531 C1166.76782646 1585.17359989 1166.76782646 1585.17359989 1177.75617144 1585.17207072 C1195.55913456 1585.16957559 1213.36209746 1585.16763408 1231.16506076 1585.16725707 C1232.36815729 1585.16723078 1232.36815729 1585.16723078 1233.59555881 1585.16720395 C1236.82797762 1585.16713475 1240.06039644 1585.16706949 1243.29281525 1585.16700647 C1273.2885851 1585.16642033 1303.2843512 1585.16265075 1333.28011947 1585.15252777 C1336.15655552 1585.1515702 1339.03299158 1585.15062687 1341.90942764 1585.14969444 C1342.96831032 1585.14934864 1342.96831032 1585.14934864 1344.04858457 1585.14899586 C1355.22083925 1585.14543342 1366.3930914 1585.14519336 1377.56534649 1585.14633027 C1388.55413503 1585.1473751 1399.54291882 1585.14474538 1410.5317059 1585.13848015 C1416.40847354 1585.13522792 1422.28523003 1585.13354562 1428.1619982 1585.13624074 C1433.51069246 1585.13865807 1438.85936444 1585.13646188 1444.20805587 1585.13062263 C1446.12853341 1585.12932505 1448.049013 1585.12968769 1449.96948966 1585.13193924 C1469.24233447 1585.72206242 1469.24233447 1585.72206242 1487.8359375 1581.7578125 C1491.09510206 1580.61651661 1494.43658757 1580.09390207 1497.8359375 1579.52734375 C1500.27495748 1579.06365047 1500.27495748 1579.06365047 1503 1577 C1504.92824213 1576.53456224 1506.85653075 1576.06931539 1508.78515625 1575.60546875 C1525.79903866 1570.95440742 1544.05653215 1557.48753038 1556 1545 C1556 1544.34 1556 1543.68 1556 1543 C1556.58007812 1542.76410156 1557.16015625 1542.52820312 1557.7578125 1542.28515625 C1565.85281325 1537.64533875 1572.24532287 1525.77436966 1576.25 1517.5 C1578 1514 1578 1514 1580 1513 C1582.16277604 1508.48638044 1583.71608177 1503.87544466 1585.24609375 1499.1171875 C1586 1497 1586 1497 1587.5625 1494.0625 C1589.2112665 1490.5499105 1589.84077794 1487.27416725 1590.47265625 1483.46484375 C1591 1481 1591 1481 1591.99438805 1478.81869781 C1593.22889322 1475.35841969 1593.45773174 1472.06995967 1593.61713493 1468.43599135 C1593.6547581 1467.69303516 1593.69238127 1466.95007896 1593.73114454 1466.18460895 C1594.14796221 1457.13416012 1594.13810082 1448.08210527 1594.12584114 1439.02413845 C1594.12688647 1437.05133535 1594.12836933 1435.07853245 1594.13024551 1433.10572997 C1594.13412097 1427.70730944 1594.13181939 1422.30890692 1594.12846755 1416.91048671 C1594.1259227 1411.02872367 1594.129194 1405.14696332 1594.13171089 1399.26520067 C1594.13531794 1388.96408758 1594.13524973 1378.66297929 1594.13266373 1368.361866 C1594.12990743 1357.31491183 1594.12933617 1346.26796074 1594.13140106 1335.22100639 C1594.13159482 1334.17236815 1594.13159482 1334.17236815 1594.13179249 1333.10254529 C1594.1323258 1330.25501017 1594.13287451 1327.40747505 1594.13344277 1324.55993994 C1594.13872566 1298.06886397 1594.13909366 1271.57779006 1594.13629532 1245.08671379 C1594.13617113 1243.91044622 1594.13617113 1243.91044622 1594.13604442 1242.71041567 C1594.13596149 1241.92497625 1594.13587856 1241.13953683 1594.13579312 1240.33029622 C1594.13326861 1216.38858369 1594.13261916 1192.44687201 1594.13381577 1168.50515938 C1594.13389324 1166.90108308 1594.1339704 1165.29700678 1594.13404724 1163.69293049 C1594.13435771 1157.24660718 1594.13467638 1150.80028387 1594.135007 1144.35396056 C1594.13592394 1126.33461193 1594.13649459 1108.3152633 1594.13679314 1090.29591465 C1594.13681361 1089.06514604 1594.13681361 1089.06514604 1594.13683449 1087.80951341 C1594.13724368 1061.66998267 1594.13611732 1035.53045223 1594.13394356 1009.39092159 C1594.13387331 1008.54328362 1594.13380306 1007.69564565 1594.13373068 1006.82232168 C1594.13258577 993.05775794 1594.13136629 979.29319421 1594.13014051 965.52863049 C1594.12528405 910.9363225 1594.12550989 856.34401696 1594.13037109 801.75170898 C1594.13159231 787.99285094 1594.13280337 774.2339929 1594.13394356 760.47513485 C1594.13401401 759.62792259 1594.13408445 758.78071032 1594.13415704 757.90782496 C1594.13631357 731.794314 1594.13722743 705.68080325 1594.13679314 679.56729221 C1594.13677955 678.74739797 1594.13676597 677.92750373 1594.13675197 677.08276421 C1594.13643948 659.08395436 1594.13580581 641.08514453 1594.13488263 623.0863347 C1594.1345535 616.64613554 1594.13424042 610.20593638 1594.13393192 603.76573721 C1594.13385453 602.16362261 1594.1337758 600.56150801 1594.13369573 598.95939341 C1594.13250268 575.02410855 1594.13351751 551.08882465 1594.13604442 527.15353991 C1594.13612722 526.36927873 1594.13621001 525.58501756 1594.13629532 524.77699089 C1594.13641934 523.60277474 1594.13641934 523.60277474 1594.13654587 522.40483705 C1594.13930532 495.99034955 1594.13828697 469.57586451 1594.13301457 443.16137736 C1594.13246223 440.32344909 1594.13192553 437.48552082 1594.13140106 434.64759254 C1594.13120575 433.60289645 1594.13120575 433.60289645 1594.1310065 432.53709538 C1594.12903611 421.52072791 1594.1304052 410.50436352 1594.13317007 399.48799632 C1594.13581899 388.6489803 1594.13479613 377.80996969 1594.13015598 366.97095432 C1594.12777617 361.17587577 1594.12696607 355.38080885 1594.13056196 349.58573066 C1594.1338029 344.30886855 1594.13240448 339.03202832 1594.1273813 333.75516779 C1594.12637814 331.86294498 1594.12702964 329.97072034 1594.12958724 328.07849899 C1594.14044787 319.42604291 1594.09336338 310.7784058 1593.67963493 302.13437372 C1593.59432649 300.27996091 1593.59432649 300.27996091 1593.50729465 298.38808522 C1592.95807954 294.72002445 1591.76111095 292.23907598 1590 289 C1589.51898534 287.07594136 1589.03970807 285.15123496 1588.59375 283.21875 C1586.99420003 277.24148433 1584.76532753 271.90277022 1581 267 C1580.29308055 265.6768602 1579.6063498 264.3427859 1578.9375 263 C1574.11638405 254.18799048 1567.02672109 246.02004082 1559 240 C1558.34 240 1557.68 240 1557 240 C1557 239.34 1557 238.68 1557 238 C1556.195625 237.731875 1555.39125 237.46375 1554.5625 237.1875 C1553.716875 236.795625 1552.87125 236.40375 1552 236 C1551.67 235.01 1551.34 234.02 1551 233 C1549.04072167 231.92239692 1547.02813371 230.94163351 1545 230 C1543.55901054 229.17271524 1542.12173528 228.33893972 1540.6875 227.5 C1536.88098626 225.35521307 1533.13290663 223.89903903 1528.9453125 222.67578125 C1527 222 1527 222 1524 220 C1522.24241653 219.60268129 1520.46819369 219.27584743 1518.6875 219 C1515.76776319 218.54391838 1513.21145504 218.08495238 1510.46384931 216.98109764 C1505.81856569 215.66537158 1501.49667318 215.72093983 1496.69169235 215.73993778 C1495.65012383 215.73613211 1494.60855531 215.73232644 1493.53542411 215.72840545 C1490.02818446 215.71805901 1486.52110574 215.72200154 1483.01385498 215.72584534 C1480.48062648 215.72139456 1477.94739937 215.71608105 1475.41417432 215.70997661 C1469.89735747 215.6987372 1464.38058921 215.69376391 1458.8637619 215.69429779 C1450.6594851 215.69509085 1442.45525008 215.6845428 1434.25098444 215.67188222 C1417.88883313 215.64713491 1401.52669195 215.63835828 1385.16452451 215.63334573 C1383.89314628 215.63295397 1383.89314628 215.63295397 1382.59608364 215.63255429 C1381.74678485 215.63229402 1380.89748607 215.63203374 1380.02245096 215.63176558 C1370.61080363 215.62868331 1361.19915911 215.62217842 1351.78751373 215.6155529 C1323.35519422 215.59590191 1294.92287774 215.57950014 1266.49055099 215.57667637 C1265.5809591 215.57658231 1264.67136721 215.57648825 1263.73421193 215.57639134 C1260.04805801 215.57601286 1256.36190409 215.57564886 1252.67575017 215.57528836 C1249.90134647 215.57501664 1247.12694277 215.57473996 1244.35253906 215.57446289 C1242.97738089 215.57433086 1242.97738089 215.57433086 1241.57444173 215.57419616 C1212.78690228 215.57129251 1183.99943004 215.54921426 1155.21191406 215.51293945 C1122.86589356 215.47218163 1090.51991886 215.44851755 1058.17387128 215.44821686 C1054.722006 215.44812004 1051.27014073 215.44795332 1047.81827545 215.44773674 C1046.96834737 215.44769263 1046.11841929 215.44764851 1045.24273582 215.44760306 C1031.5836227 215.44648467 1017.92457707 215.42909667 1004.26548566 215.40591742 C990.52541559 215.38303415 976.78543636 215.3788758 963.04535422 215.39346672 C954.89060668 215.40159688 946.73614596 215.39600332 938.58143342 215.37028587 C932.47925625 215.35260082 926.37740766 215.36129448 920.27522126 215.37993097 C917.81614332 215.38341731 915.35703543 215.37855248 912.89799675 215.36422653 C898.73366654 215.28706353 886.40884302 216.30923837 873 221 C871.81858704 221.39559429 870.63717409 221.79118858 869.41996074 222.19877058 C864.25398056 223.83464493 864.25398056 223.83464493 860 227 C858.5459375 227.556875 858.5459375 227.556875 857.0625 228.125 C847.69435192 232.01219837 838.94731059 239.73621756 832 247 C832 247.66 832 248.32 832 249 C830.68 249.66 829.36 250.32 828 251 C828 251.66 828 252.32 828 253 C826.515 253.495 826.515 253.495 825 254 C823.42137932 256.18234043 823.42137932 256.18234043 822 258.8125 C820.1615616 262.0537052 818.23553092 265.02351408 816 268 C815.31246699 269.65816784 814.64438717 271.32459336 814 273 C813.34 273.99 812.68 274.98 812 276 C811.32060826 277.99571323 810.65438441 279.99594773 810 282 C809.67 282.62390625 809.34 283.2478125 809 283.890625 C807.8989354 286.21318314 807.44582118 288.28485311 807 290.8125 C806.48965305 293.67864494 805.89609098 296.31432363 804.98014545 299.08504868 C803.70942994 303.51620459 803.72648268 307.78715732 803.75517273 312.36968994 C803.75290816 313.2933151 803.75064358 314.21694026 803.74831039 315.16855407 C803.74302743 318.25339061 803.75183542 321.33802509 803.76049805 324.42285156 C803.75938472 326.63933374 803.75732623 328.85581562 803.75439453 331.07229614 C803.74967483 335.8428944 803.75079011 340.61344344 803.75617027 345.38404083 C803.76379093 352.94256625 803.75311029 360.50099724 803.7389679 368.05950928 C803.7203521 378.67183312 803.7051005 389.28414818 803.6965332 399.89648438 C803.69598514 400.56940213 803.69543708 401.24231989 803.69487242 401.9356291 C803.68643431 412.81198713 803.68974106 423.68832031 803.69568755 434.56467846 C803.70132929 445.76232986 803.68734738 456.95987784 803.65813476 468.15749717 C803.63957584 475.65471325 803.64270919 483.15149475 803.66230237 490.6487031 C803.66923664 495.33905282 803.65512336 500.0291726 803.63535309 504.71947861 C803.63035094 506.87555307 803.63367206 509.03166763 803.64648628 511.18770981 C803.72804348 525.97568394 803.39557125 542.20629988 795 555 C794.31867549 556.66072849 793.65257873 558.327767 793 560 C792.46375 561.051875 791.9275 562.10375 791.375 563.1875 C789.85359662 565.77769146 789.85359662 565.77769146 790 568 C789.01 568.33 788.02 568.66 787 569 C785.40604084 571.24883311 785.40604084 571.24883311 783.875 574 C778.9667132 581.9798574 772.95844489 588.04807874 765 593 C764.01 593.845625 763.02 594.69125 762 595.5625 C757.2281616 599.4396187 751.7416288 601.59181479 746.1484375 604.03515625 C744.73638974 604.66929406 743.34142839 605.34321713 741.96875 606.05859375 C740.0105735 606.99494402 738.23766752 607.52486192 736.125 608 C733.77267654 608.5333203 731.64524057 609.13814082 729.38989258 610.01635742 C725.40246868 611.17338521 721.68002253 611.30573784 717.56640625 611.30078125 C716.77024399 611.30506638 715.97408173 611.3093515 715.15379333 611.31376648 C713.47713162 611.31948558 711.80044511 611.32002797 710.1237793 611.31567383 C707.57362114 611.31251378 705.02462443 611.33600255 702.47460938 611.36132812 C700.83854312 611.36360154 699.20247377 611.36430442 697.56640625 611.36328125 C696.81202774 611.372491 696.05764923 611.38170074 695.28041077 611.39118958 C690.12602574 611.34665249 686.62827532 610.27327109 682 608 C680.54941196 607.49787337 679.09185146 607.0149197 677.625 606.5625 C670.48036308 604.22138807 664.0978179 601.20108164 657.796875 597.10546875 C655.6270843 595.77057578 653.40637423 594.82719114 651 594 C651 593.34 651 592.68 651 592 C649.44532719 590.65632361 649.44532719 590.65632361 647.4375 589.3125 C630.9563028 577.26297797 620.28015005 558.6046452 615.7109375 538.95703125 C615.03251104 535.95186498 615.03251104 535.95186498 613.97086811 532.90079117 C612.70742001 528.47615704 612.72653373 524.2046881 612.75517273 519.63031006 C612.75290816 518.7066849 612.75064358 517.78305974 612.74831039 516.83144593 C612.74302743 513.74660939 612.75183542 510.66197491 612.76049805 507.57714844 C612.75938472 505.36066626 612.75732623 503.14418438 612.75439453 500.92770386 C612.74967483 496.1571056 612.75079011 491.38655656 612.75617027 486.61595917 C612.76379093 479.05743375 612.75311029 471.49900276 612.7389679 463.94049072 C612.7203521 453.32816688 612.7051005 442.71585182 612.6965332 432.10351562 C612.69598514 431.43059787 612.69543708 430.75768011 612.69487242 430.0643709 C612.68643431 419.18801287 612.68974106 408.31167969 612.69568755 397.43532154 C612.70132929 386.23767014 612.68734738 375.04012216 612.65813476 363.84250283 C612.63957584 356.34528675 612.64270919 348.84850525 612.66230237 341.3512969 C612.66923664 336.66094718 612.65512336 331.9708274 612.63535309 327.28052139 C612.63035094 325.12444693 612.63367206 322.96833237 612.64648628 320.81229019 C612.79240313 294.35460493 605.66236108 272.73856101 589 252 C588.50242187 251.37609375 588.00484375 250.7521875 587.4921875 250.109375 C582.79518483 244.41137177 577.31904878 238.05848247 570 236 C570 235.34 570 234.68 570 234 C568.4167312 232.7358414 568.4167312 232.7358414 566.375 231.5625 C565.28251953 230.90507812 565.28251953 230.90507812 564.16796875 230.234375 C561.49664808 228.71340684 558.76165809 227.34871674 556 226 C555.01 225.34 554.02 224.68 553 224 C551.05396726 223.40929986 551.05396726 223.40929986 549 223 C545.97444588 222.35821579 544.69508748 221.79672498 542 220 C540.03289833 219.60159966 538.05057889 219.27523466 536.0625 219 C530.40721647 218.21512794 530.40721647 218.21512794 528.07065499 216.98074847 C525.82478466 215.91701071 524.42547241 215.74862814 521.95936394 215.74552441 C521.15986915 215.73969221 520.36037435 215.73386002 519.53665245 215.72785109 C518.66409785 215.73163042 517.79154325 215.73540974 516.89254761 215.73930359 C515.96105208 215.73547804 515.02955654 215.73165249 514.06983387 215.72771102 C510.9408674 215.71737222 507.81208414 215.72137493 504.68310547 215.7253418 C502.44260996 215.72099568 500.20211594 215.71581286 497.96162415 215.70985413 C491.868392 215.6964386 485.77522179 215.69588856 479.68197775 215.69841743 C474.59524762 215.69948593 469.50853008 215.69460658 464.42180264 215.689812 C451.73042037 215.67807149 439.03908294 215.6789468 426.34770109 215.68536881 C415.33894783 215.69053187 404.33028322 215.67929952 393.32154749 215.66027059 C382.00993749 215.64086866 370.69838156 215.63293171 359.38675034 215.63639385 C353.0394374 215.63820584 346.69220555 215.6355792 340.34490585 215.62167931 C334.37115533 215.609088 328.3975817 215.61105759 322.42383385 215.62409019 C320.23495231 215.62645309 318.04605829 215.62373161 315.85719109 215.61546707 C312.8610417 215.60497324 309.86548288 215.61312181 306.86935425 215.6257782 C305.58059885 215.61471677 305.58059885 215.61471677 304.26580799 215.60343188 C298.87612681 215.65108125 294.32005528 216.57795667 289.21284497 218.30807811 Z " fill="#FEFEFE" transform="translate(0,0)"/>
<path d="M0 0 C0.86504626 -0.00226556 1.73009253 -0.00453111 2.62135231 -0.00686532 C5.5192391 -0.01319415 8.41707899 -0.01237667 11.31497192 -0.0115509 C13.39299581 -0.01454308 15.47101915 -0.01794574 17.54904175 -0.02172852 C23.19366673 -0.03056646 28.83827655 -0.03290654 34.48290777 -0.0335443 C39.19468284 -0.03449376 43.90645437 -0.03817246 48.61822808 -0.0417164 C59.73426691 -0.04986007 70.85029764 -0.0523007 81.96633911 -0.05158997 C93.43442747 -0.05098908 104.90246881 -0.06154326 116.37054527 -0.07733363 C126.21611149 -0.09040706 136.06166234 -0.09577395 145.90723717 -0.09513456 C151.78773217 -0.09487953 157.66818537 -0.09773362 163.54867172 -0.10831261 C169.07917364 -0.11799031 174.60959378 -0.11807497 180.14009857 -0.11079597 C182.16898594 -0.10974975 184.1978784 -0.11211525 186.22675705 -0.11815643 C188.9982728 -0.1258739 191.76950596 -0.1212331 194.54101562 -0.11352539 C195.74263645 -0.12124074 195.74263645 -0.12124074 196.96853244 -0.12911195 C201.8278363 -0.09928952 205.77384213 0.63709958 210.39749146 2.13371277 C211.93415666 2.32518998 213.47672251 2.47846663 215.02249146 2.57121277 C218.89181152 2.93722953 221.1254556 3.9810576 224.39749146 6.13371277 C226.12999146 6.62871277 226.12999146 6.62871277 227.89749146 7.13371277 C231.2984531 8.1054161 233.44591076 9.23626804 236.39749146 11.13371277 C236.98530396 11.41343933 237.57311646 11.69316589 238.17874146 11.98136902 C250.38941264 17.9727991 260.82415278 28.75065015 269.39749146 39.13371277 C270.10647583 39.98578308 270.81546021 40.83785339 271.54592896 41.71574402 C273.35667326 44.080408 274.44804495 46.34959435 275.54592896 49.10636902 C276.92606451 52.39210458 278.58848837 55.53422389 280.21389771 58.70402527 C286.33364257 71.26666985 287.98743916 83.32048434 287.88523865 97.0696106 C287.88770436 98.73900244 287.89192611 100.40839245 287.89773339 102.07777601 C287.90853781 106.62760078 287.8946345 111.1770545 287.87641299 115.726843 C287.86111548 120.6477089 287.86908163 125.56854616 287.87409973 130.48942566 C287.8803083 140.11262652 287.86537865 149.73568294 287.84337411 159.35885607 C287.81862947 170.56900957 287.81576719 181.77913702 287.81397035 192.98931379 C287.81009854 212.98808044 287.7876609 232.98678219 287.75418091 252.98551941 C287.72172483 272.38851696 287.70049492 291.79148026 287.69265747 311.19450378 C287.69192923 312.98868868 287.69192923 312.98868868 287.69118629 314.81911974 C287.68925753 319.62713002 287.6873454 324.43514029 287.68547018 329.24315059 C287.67793871 347.74391394 287.66231334 366.24467169 287.64497358 384.74542816 C287.63973892 390.33280948 287.63480575 395.92019068 287.63061166 401.50757289 C287.6216913 413.25133011 287.60990542 424.99507095 287.58904562 436.73881375 C287.58045248 441.59434355 287.573364 446.44986206 287.57052994 451.30539894 C287.56786005 455.74932086 287.56056258 460.19321017 287.54953947 464.637119 C287.54633795 466.24515649 287.5448004 467.85319832 287.54508976 469.46123897 C287.54521535 471.64675819 287.53922507 473.83217957 287.53171253 476.01768398 C287.52992396 477.23165527 287.52813539 478.44562655 287.52629262 479.69638485 C287.33843535 484.70974816 286.87194888 489.53024414 284.95999146 494.19621277 C284.05224511 496.46775029 283.23628196 498.66340111 282.52249146 501.00871277 C278.51481747 512.14114051 272.3032586 522.45112124 264.27639771 531.10246277 C262.69165395 532.81569926 261.22167833 534.55708494 259.77249146 536.38371277 C256.47667649 540.19991957 253.2722242 543.50880185 248.39749146 545.13371277 C247.73749146 546.12371277 247.07749146 547.11371277 246.39749146 548.13371277 C244.47876543 549.20775182 242.51295988 550.19931194 240.52249146 551.13371277 C236.8196747 552.8804961 233.63738581 554.64617881 230.39749146 557.13371277 C210.6915094 567.93094877 185.798557 565.71629444 164.12944913 565.65661144 C159.21455807 565.64747711 154.29972172 565.66157179 149.38484192 565.67253113 C139.78218159 565.69023235 130.17964697 565.68651403 120.5769819 565.67488056 C112.76631228 565.66581326 104.95567766 565.66463644 97.14500427 565.66897583 C96.02946723 565.66958876 94.91393018 565.67020169 93.76458898 565.6708332 C91.49774928 565.67211222 89.23090959 565.67340908 86.9640699 565.67472357 C65.75353225 565.68610477 44.54306398 565.67305437 23.33253771 565.6515221 C5.16909565 565.63365338 -12.99424411 565.63675818 -31.15768433 565.65519714 C-52.29707282 565.67664743 -73.43640065 565.68500636 -94.57579851 565.67274809 C-96.83387279 565.67147402 -99.09194707 565.67021653 -101.35002136 565.66897583 C-103.01614735 565.66805018 -103.01614735 565.66805018 -104.71593246 565.66710582 C-112.50892453 565.66366538 -120.30187783 565.66945297 -128.09486389 565.67889404 C-137.60379501 565.69016174 -147.1125942 565.68697431 -156.62151039 565.66577107 C-161.4645881 565.6553245 -166.30744659 565.65102844 -171.15052223 565.66436768 C-220.73222339 565.78945368 -220.73222339 565.78945368 -241.60250854 553.13371277 C-242.97648369 552.42339354 -244.35147726 551.71504061 -245.72750854 551.00871277 C-254.76716953 545.99170092 -262.09934111 539.08568713 -268.60250854 531.13371277 C-269.35080933 530.30806824 -269.35080933 530.30806824 -270.11422729 529.46574402 C-276.34924403 522.57613235 -281.23379763 514.68692699 -284.77828979 506.10636902 C-285.57596694 504.10830564 -285.57596694 504.10830564 -286.64547729 502.18840027 C-287.73223999 499.8551873 -288.16533153 497.72949742 -288.60250854 495.19621277 C-289.062241 492.54043691 -289.55141987 490.2550732 -290.59916973 487.7661581 C-294.27737987 478.11569209 -292.75107427 465.81063163 -292.74777222 455.60221863 C-292.750769 453.74492323 -292.75417271 451.88762845 -292.75794983 450.03033447 C-292.766738 445.01394212 -292.76912566 439.99756686 -292.76976562 434.98116755 C-292.77047869 431.84239893 -292.77261781 428.70363458 -292.77526283 425.56486702 C-292.7844968 414.60205435 -292.78859988 403.6392538 -292.78781128 392.67643738 C-292.78720996 382.4761402 -292.79777737 372.27589582 -292.81355494 362.07561201 C-292.82664532 353.29823399 -292.8319946 344.52087321 -292.83135587 335.74348551 C-292.83110147 330.509645 -292.83392134 325.27585153 -292.84453392 320.0420208 C-292.85424095 315.12126325 -292.85427625 310.20059751 -292.84701729 305.27983665 C-292.84597492 303.47957474 -292.8483136 301.67930703 -292.85437775 299.87905502 C-292.90876509 282.60814499 -292.90876509 282.60814499 -290.60250854 274.13371277 C-290.15971558 272.32580261 -290.15971558 272.32580261 -289.70797729 270.48136902 C-287.61722488 262.99914443 -285.04752153 256.09333496 -281.60250854 249.13371277 C-280.79813354 247.40121277 -280.79813354 247.40121277 -279.97750854 245.63371277 C-278.60250854 243.13371277 -278.60250854 243.13371277 -277.17282104 241.72746277 C-275.4577144 239.98675751 -274.36314301 238.22452115 -273.10250854 236.13371277 C-262.90298577 220.64554855 -245.70175425 208.33783103 -227.97360229 202.94230652 C-225.40939623 202.1183439 -225.40939623 202.1183439 -222.33688354 200.58293152 C-218.37604235 198.85853791 -214.69297767 198.6211852 -210.41500854 198.50871277 C-205.55807943 198.44671843 -205.55807943 198.44671843 -200.80528259 197.63038635 C-197.75351025 196.94228368 -194.84123115 196.99242146 -191.71359253 196.97599792 C-191.02842056 196.97091721 -190.3432486 196.96583649 -189.63731384 196.96060181 C-188.15212203 196.94992138 -186.66691436 196.94129212 -185.18169975 196.93448257 C-182.82172806 196.92264042 -180.46193502 196.90317075 -178.10203552 196.88136292 C-171.39286357 196.81995025 -164.68370848 196.76589326 -157.97433472 196.73234558 C-153.86522226 196.71125094 -149.75643416 196.67582614 -145.64750862 196.63158798 C-144.09083978 196.61753837 -142.53411353 196.60873083 -140.97738457 196.6055336 C-127.02990858 196.5738749 -115.04985317 195.32229963 -104.60250854 185.13371277 C-99.18793341 177.5762669 -96.45733332 171.39527865 -96.4447937 162.13322449 C-96.43971298 161.31818954 -96.43463226 160.5031546 -96.42939758 159.66342163 C-96.41869489 157.89227753 -96.41007431 156.12111991 -96.40327835 154.34995651 C-96.39147761 151.54116038 -96.37201938 148.73251718 -96.35015869 145.92378235 C-96.2885986 137.93717081 -96.23460079 129.95057346 -96.20114136 121.96379089 C-96.1801218 117.0778031 -96.14475565 112.19209201 -96.10038376 107.30626297 C-96.08627608 105.44928891 -96.07751321 103.59226586 -96.07432938 101.73524094 C-96.06938576 99.12672526 -96.04613836 96.51893493 -96.01901245 93.91056824 C-96.02352165 92.773955 -96.02352165 92.773955 -96.02812195 91.61437988 C-95.95284174 86.7062678 -94.99760655 82.65891129 -93.28378868 78.05825996 C-92.48367382 75.79801675 -92.20893287 73.71132575 -92.10250854 71.32121277 C-91.79027221 67.63172631 -90.99637032 66.0063469 -88.60250854 63.13371277 C-88.31375854 62.08183777 -88.02500854 61.02996277 -87.72750854 59.94621277 C-85.19577776 51.36645845 -79.75900168 44.3294236 -74.60250854 37.13371277 C-73.94250854 36.14371277 -73.28250854 35.15371277 -72.60250854 34.13371277 C-71.94250854 34.13371277 -71.28250854 34.13371277 -70.60250854 34.13371277 C-70.21578979 33.25972839 -70.21578979 33.25972839 -69.82125854 32.36808777 C-68.50416838 29.95342246 -67.0516247 28.31631099 -65.10250854 26.38371277 C-64.49407104 25.77011902 -63.88563354 25.15652527 -63.25875854 24.52433777 C-61.60250854 23.13371277 -61.60250854 23.13371277 -59.60250854 23.13371277 C-59.60250854 22.47371277 -59.60250854 21.81371277 -59.60250854 21.13371277 C-57.63488574 19.68388544 -55.68544565 18.40409817 -53.60250854 17.13371277 C-52.42494995 16.41441589 -52.42494995 16.41441589 -51.22360229 15.68058777 C-48.69190126 14.14997157 -46.14786692 12.64147283 -43.60250854 11.13371277 C-42.63571167 10.53816589 -42.63571167 10.53816589 -41.64938354 9.93058777 C-37.74278086 7.57254831 -33.99071589 6.31515321 -29.60250854 5.13371277 C-28.11750854 4.14371277 -28.11750854 4.14371277 -26.60250854 3.13371277 C-24.49078548 2.70746787 -22.362125 2.36185277 -20.22750854 2.07121277 C-15.80626293 1.48578958 -15.80626293 1.48578958 -11.43850517 0.61301708 C-7.62401231 -0.0316603 -3.85613124 -0.00741316 0 0 Z " fill="#FEFEFE" transform="translate(904.6025085449219,617.8662872314453)"/>
</svg>
